<svg width="55" height="88" viewBox="0 0 55 88" fill="none" xmlns="http://www.w3.org/2000/svg">
<path d="M54.6707 92.7363V92.7413H0.181427V92.7363C0.181427 85.1803 3.25249 78.3432 8.22005 73.4121C8.45137 73.1808 8.68269 72.96 8.9235 72.7392C9.63793 72.0767 10.3878 71.4552 11.1682 70.8747C11.6818 70.4895 12.2164 70.1298 12.7555 69.781C13.295 69.4318 13.8496 69.1031 14.4196 68.7943C14.4301 68.7838 14.4406 68.7838 14.4406 68.7838C14.6609 68.6604 14.8768 68.5375 15.0931 68.4036C15.7401 68.0234 16.3516 67.5923 16.9366 67.1246C19.4177 65.1522 21.3392 62.5013 22.4328 59.4607V59.4552C23.0853 57.6422 23.44 55.6852 23.44 53.6403L31.4941 53.6763C31.4941 55.6947 31.8378 57.6367 32.4753 59.4342C33.559 62.4903 35.47 65.1462 37.951 67.1286C38.1203 67.267 38.2947 67.4009 38.4696 67.5293C38.7109 67.7092 38.9577 67.884 39.204 68.0484C39.3888 68.1713 39.5792 68.2947 39.7695 68.4081C39.9799 68.5365 40.1957 68.6649 40.4115 68.7828C40.432 68.7883 40.447 68.7933 40.463 68.8033C40.478 68.8133 40.494 68.8238 40.5095 68.8338C41.1415 69.183 41.7575 69.5527 42.353 69.9434C42.5533 70.0723 42.7537 70.2052 42.9485 70.3446C43.2058 70.5294 43.4676 70.7143 43.7194 70.9096H43.7299C50.3711 75.8727 54.6707 83.7934 54.6707 92.7363Z" fill="#F89D8F"/>
<path d="M54.6707 92.7364H0.181427C0.181427 85.1804 3.25249 78.3434 8.22005 73.4123C8.45137 73.181 8.68269 72.9601 8.9235 72.7393C9.63793 72.0768 10.3878 71.4498 11.1682 70.8698C11.6818 70.4891 12.2164 70.1249 12.7555 69.7807C13.295 69.4314 13.8496 69.1027 14.4196 68.7939C14.4301 68.7834 14.4406 68.7835 14.4406 68.7835C14.6609 68.66 14.8768 68.5371 15.0931 68.4033C15.7401 68.0231 16.3516 67.5919 16.9366 67.1243C19.608 69.8566 23.3266 71.5468 27.4513 71.5468C31.561 71.5468 35.2796 69.8516 37.951 67.1293C38.1203 67.2677 38.2947 67.4015 38.4696 67.5299C38.7109 67.7098 38.9577 67.8847 39.204 68.049C39.3888 68.1719 39.5792 68.2953 39.7695 68.4087C39.9799 68.5421 40.1957 68.6655 40.4115 68.7835C40.432 68.7889 40.447 68.7939 40.463 68.8039C40.478 68.8094 40.494 68.8194 40.5095 68.8299C41.1415 69.1791 41.7575 69.5488 42.353 69.944C42.5533 70.0729 42.7537 70.2058 42.9485 70.3452C43.2058 70.5301 43.4676 70.7149 43.7194 70.9103H43.7299C50.3711 75.8728 54.6707 83.7935 54.6707 92.7364Z" fill="#9347B2"/>
<path d="M6.51419 17.3865V34.4315C6.51419 48.9085 19.2226 60.6437 27.4261 60.6437C35.6301 60.6437 48.3385 48.9085 48.3385 34.4315V17.3865H6.51419Z" fill="#F89D8F"/>
<path d="M6.51419 32.3811C7.54488 32.3811 8.37971 31.5463 8.37971 30.5161V18.6585H6.51419V32.3811Z" fill="#141720"/>
<path d="M48.3376 32.3811V18.6585H46.4725V30.5161C46.472 31.5463 47.3069 32.3811 48.3376 32.3811Z" fill="#141720"/>
<path d="M48.3378 18.1459C48.3378 20.5859 48.1739 21.174 46.4723 21.0441C46.4038 19.8615 37.9086 18.8978 27.4319 18.8978C16.9477 18.8978 8.4524 19.8615 8.38395 21.0441C6.6823 21.174 6.51843 20.5859 6.51843 18.1459C6.51843 17.9065 6.52543 17.6542 6.53192 17.387C6.79172 11.3657 10.188 0.10965 27.4319 0.10965C44.6682 0.10965 48.065 11.3657 48.3243 17.387C48.3308 17.6542 48.3378 17.907 48.3378 18.1459Z" fill="#141720"/>
</svg>
