<svg width="27" height="27" viewBox="0 0 27 27" fill="none" xmlns="http://www.w3.org/2000/svg">
<g clip-path="url(#clip0)">
<path d="M23.0859 12.0674V8.81738H21.4609V12.0674H18.2109V13.6924H21.4609V16.9424H23.0859V13.6924H26.3359V12.0674H23.0859Z" fill="#DD4B39"/>
<path d="M8.46094 12.0674V15.3174H13.0581C12.3869 17.2089 10.5799 18.5674 8.46094 18.5674C5.77319 18.5674 3.58594 16.3801 3.58594 13.6924C3.58594 11.0046 5.77319 8.81738 8.46094 8.81738C9.62606 8.81738 10.7473 9.23501 11.6183 9.99388L13.7536 7.54338C12.2911 6.26938 10.4126 5.56738 8.46094 5.56738C3.98081 5.56738 0.335938 9.21226 0.335938 13.6924C0.335938 18.1725 3.98081 21.8174 8.46094 21.8174C12.9411 21.8174 16.5859 18.1725 16.5859 13.6924V12.0674H8.46094Z" fill="#DD4B39"/>
</g>
<defs>
<clipPath id="clip0">
<rect width="26" height="26" fill="white" transform="translate(0.335938 0.692383)"/>
</clipPath>
</defs>
</svg>
