<svg width="26" height="21" viewBox="0 0 26 21" fill="none" xmlns="http://www.w3.org/2000/svg">
<path d="M25.3359 3.06008C24.4062 3.46161 23.4156 3.72777 22.3828 3.857C23.4453 3.23238 24.2563 2.25084 24.6375 1.06777C23.6469 1.64931 22.5531 2.06008 21.3875 2.28931C20.4469 1.30315 19.1062 0.692383 17.6437 0.692383C14.8062 0.692383 12.5219 2.96008 12.5219 5.74008C12.5219 6.14008 12.5562 6.52469 12.6406 6.89084C8.37969 6.68623 4.60938 4.67546 2.07656 1.61238C1.63437 2.36777 1.375 3.23238 1.375 4.16315C1.375 5.91084 2.28906 7.46007 3.65156 8.357C2.82812 8.34161 2.02031 8.10623 1.33594 7.73546C1.33594 7.75084 1.33594 7.77084 1.33594 7.79084C1.33594 10.2432 3.1125 12.2801 5.44219 12.7493C5.025 12.8616 4.57031 12.9155 4.09844 12.9155C3.77031 12.9155 3.43906 12.897 3.12812 12.8293C3.79219 14.8278 5.67656 16.297 7.91719 16.3447C6.17344 17.6878 3.95938 18.497 1.5625 18.497C1.14219 18.497 0.739062 18.4785 0.335938 18.4278C2.60625 19.8693 5.29688 20.6924 8.19844 20.6924C17.6297 20.6924 22.7859 13.0001 22.7859 6.33238C22.7859 6.10931 22.7781 5.89392 22.7672 5.68008C23.7844 4.96931 24.6391 4.08161 25.3359 3.06008Z" fill="#00AACE"/>
</svg>
